<?xml version="1.0" standalone="no"?>
<svg xmlns="http://www.w3.org/2000/svg" viewBox="0 0 131.3 26.584" width="131.3" height="26.584"><path fill="#0b005d" fill-rule="nonzero" d="M0 15.48L0 0.29L8.93 0.29L8.93 1.80L1.78 1.80L1.78 6.82L7.80 6.82L7.80 8.33L1.78 8.33L1.78 13.97L9.24 13.97L9.24 15.48L0 15.48ZM12.43 19.85L12.43 4.58L13.70 4.58L13.92 5.76Q15.26 4.30 17.47 4.30L17.47 4.30Q19.82 4.30 21.19 6.07L21.19 6.07Q22.34 7.58 22.34 9.82L22.34 9.82Q22.34 12.77 20.66 14.42L20.66 14.42Q19.30 15.77 17.35 15.77L17.35 15.77Q15.24 15.77 14.04 14.47L14.04 14.47L14.04 19.85L12.43 19.85ZM14.04 7.54L14.04 7.54L14.04 12.70Q14.33 13.44 15.18 13.94Q16.03 14.45 16.94 14.45L16.94 14.45Q18.60 14.45 19.61 13.25Q20.62 12.05 20.62 10.06L20.62 10.06Q20.62 7.82 19.51 6.62L19.51 6.62Q18.60 5.62 17.11 5.62L17.11 5.62Q16.18 5.62 15.29 6.17Q14.40 6.72 14.04 7.54ZM25.49 4.58L27.07 4.58L27.07 15.48L25.49 15.48L25.49 4.58ZM25.25 1.03L25.25 1.03Q25.25 0.62 25.56 0.31Q25.87 0 26.30 0L26.30 0Q26.74 0 27.05 0.31Q27.36 0.62 27.36 1.03L27.36 1.03Q27.36 1.49 27.05 1.79Q26.74 2.09 26.30 2.09L26.30 2.09Q25.85 2.09 25.55 1.79Q25.25 1.49 25.25 1.03ZM30.94 0.86L32.54 0L32.54 15.48L30.94 15.48L30.94 0.86ZM45.14 10.06L45.14 10.58L37.37 10.58Q37.46 12.34 38.58 13.39Q39.70 14.45 41.47 14.45L41.47 14.45Q42.96 14.45 44.38 13.56L44.38 13.56L44.93 14.52Q43.34 15.77 41.11 15.77L41.11 15.77Q38.52 15.77 36.98 14.06L36.98 14.06Q35.57 12.53 35.57 10.08L35.57 10.08Q35.57 7.54 37.08 5.83L37.08 5.83Q38.45 4.30 40.46 4.30L40.46 4.30Q42.89 4.30 44.16 6.26L44.16 6.26Q45.14 7.80 45.14 10.06L45.14 10.06ZM37.34 9.29L37.34 9.29L43.49 9.29Q43.42 7.54 42.64 6.55Q41.86 5.57 40.49 5.57L40.49 5.57Q39.19 5.57 38.32 6.60Q37.44 7.63 37.34 9.29ZM48.17 19.85L48.17 4.58L49.44 4.58L49.66 5.76Q51.00 4.30 53.21 4.30L53.21 4.30Q55.56 4.30 56.93 6.07L56.93 6.07Q58.08 7.58 58.08 9.82L58.08 9.82Q58.08 12.77 56.40 14.42L56.40 14.42Q55.03 15.77 53.09 15.77L53.09 15.77Q50.98 15.77 49.78 14.47L49.78 14.47L49.78 19.85L48.17 19.85ZM49.78 7.54L49.78 7.54L49.78 12.70Q50.06 13.44 50.92 13.94Q51.77 14.45 52.68 14.45L52.68 14.45Q54.34 14.45 55.34 13.25Q56.35 12.05 56.35 10.06L56.35 10.06Q56.35 7.82 55.25 6.62L55.25 6.62Q54.34 5.62 52.85 5.62L52.85 5.62Q51.91 5.62 51.02 6.17Q50.14 6.72 49.78 7.54ZM66.98 5.33L66.46 6.22Q65.26 5.59 63.84 5.59L63.84 5.59Q62.88 5.59 62.34 6.01Q61.80 6.43 61.80 7.15L61.80 7.15Q61.80 7.92 62.29 8.34Q62.78 8.76 64.18 9.17L64.18 9.17Q66.14 9.77 66.91 10.51Q67.68 11.26 67.68 12.60L67.68 12.60Q67.68 14.02 66.61 14.89Q65.54 15.77 63.86 15.77L63.86 15.77Q61.66 15.77 60.02 14.57L60.02 14.57Q60.10 14.45 60.26 14.16L60.26 14.16Q60.43 13.85 60.55 13.68L60.55 13.68Q61.94 14.45 63.55 14.45L63.55 14.45Q66.07 14.45 66.07 12.55L66.07 12.55Q66.07 11.78 65.53 11.35Q64.99 10.92 63.53 10.54L63.53 10.54Q60.12 9.58 60.12 7.20L60.12 7.20Q60.12 5.93 61.12 5.11Q62.11 4.30 63.67 4.30L63.67 4.30Q65.52 4.30 66.98 5.33L66.98 5.33ZM70.82 4.58L72.41 4.58L72.41 15.48L70.82 15.48L70.82 4.58ZM70.58 1.03L70.58 1.03Q70.58 0.62 70.90 0.31Q71.21 0 71.64 0L71.64 0Q72.07 0 72.38 0.31Q72.70 0.62 72.70 1.03L72.70 1.03Q72.70 1.49 72.38 1.79Q72.07 2.09 71.64 2.09L71.64 2.09Q71.18 2.09 70.88 1.79Q70.58 1.49 70.58 1.03ZM84.26 8.86L84.26 15.48L83.06 15.48L82.82 14.30Q81.36 15.77 79.18 15.77L79.18 15.77Q77.52 15.77 76.54 14.84Q75.55 13.92 75.55 12.38L75.55 12.38Q75.55 8.64 81.02 8.64L81.02 8.64L82.68 8.64L82.68 8.50Q82.68 5.64 79.90 5.64L79.90 5.64Q78.31 5.64 76.85 6.70L76.85 6.70L76.32 5.81Q77.98 4.30 80.35 4.30L80.35 4.30Q82.25 4.30 83.26 5.47Q84.26 6.65 84.26 8.86L84.26 8.86ZM82.68 12.77L82.68 9.82L81.22 9.82Q77.28 9.82 77.28 12.24L77.28 12.24Q77.28 13.27 77.89 13.86Q78.50 14.45 79.61 14.45L79.61 14.45Q80.57 14.45 81.46 13.97Q82.34 13.49 82.68 12.77L82.68 12.77Z" transform="translate(0, 3.368)"></path><line x1="93.26400000000001" y1="2%" x2="93.26400000000001" y2="98%" stroke="#0b005d" stroke-linecap="round"></line><g fill="#6590da" color="#6590da" transform="translate(102.26400000000001 0) scale(0.6041667)"><svg width="48.0" height="44.0" x="0.0" y="0.0" viewBox="0 0 48 44"><path fill="currentColor" fill-rule="evenodd" d="M20.266 38.026c-2.437-1.065-5.302-1.733-8.116-2.388-4.468-1.04-9.088-2.116-9.983-4.553-.56-1.527-.386-3.223.454-4.427.797-1.141 2.148-1.745 3.905-1.745 1.032 0 2.193.204 3.453.61 4.24 1.36 7.292 6.1 9.106 9.838a42.98 42.98 0 0 1 1.18 2.665M6.527 23.066c1.173 0 2.51.215 4.017.698 9.445 3.033 13.383 19.43 13.383 19.43C19.899 36.363 2.888 38.404.434 31.72c-1.374-3.743.476-8.655 6.092-8.655zm34.8 0c5.616 0 7.466 4.912 6.091 8.655-2.453 6.684-19.465 4.644-23.491 11.473 0 0 3.938-16.397 13.383-19.43 1.506-.483 2.843-.697 4.016-.697zm0 1.847c-1.032 0-2.193.205-3.453.61-4.786 1.536-8.263 7.531-10.297 12.507 2.44-1.068 5.308-1.735 8.126-2.392 4.468-1.04 9.087-2.116 9.982-4.553.56-1.526.387-3.222-.453-4.426-.798-1.142-2.149-1.746-3.906-1.746zM11.953 8.493c1 0 2.132.303 3.374 1.025 5.516 3.204 7.5 19.618 7.5 19.618C21.188 23.864 8.384 20.34 7.17 14.633c-.54-2.545 1.343-6.14 4.785-6.14zm23.944-.001c3.442 0 5.325 3.596 4.784 6.14-1.213 5.71-14.017 9.232-15.66 14.504 0 0 1.986-16.414 7.502-19.618 1.242-.722 2.373-1.025 3.374-1.026zm-23.944 1.846c-1.086 0-1.791.589-2.19 1.083-.658.812-.975 1.95-.788 2.828.467 2.204 4.077 4.486 7.262 6.5 1.269.802 2.514 1.59 3.647 2.402a64.171 64.171 0 0 0-.533-2.19c-1.892-7.164-3.914-9.244-4.952-9.847-.885-.514-1.708-.776-2.446-.776zm23.944 0c-.738 0-1.561.262-2.447.776-1.037.603-3.06 2.683-4.951 9.847a63.847 63.847 0 0 0-.534 2.19c1.133-.812 2.379-1.6 3.648-2.402 3.185-2.014 6.795-4.296 7.262-6.5.187-.879-.13-2.016-.788-2.828-.4-.495-1.104-1.082-2.19-1.083zM23.926 0a4.808 4.808 0 0 1 4.808 4.808c0 2.556-4.452 9.636-4.788 10.167l-.02.031s-4.808-7.542-4.808-10.198A4.808 4.808 0 0 1 23.926 0zm0 1.846a2.965 2.965 0 0 0-2.962 2.962c0 .962 1.353 3.808 2.962 6.623 1.608-2.815 2.962-5.66 2.962-6.623a2.965 2.965 0 0 0-2.962-2.962z"></path></svg></g></svg>